<?xml version="1.0" encoding="utf-8"?>
<!-- Generator: Adobe Illustrator 19.0.0, SVG Export Plug-In . SVG Version: 6.00 Build 0)  -->
<svg version="1.1" id="Layer_1" xmlns="http://www.w3.org/2000/svg" xmlns:xlink="http://www.w3.org/1999/xlink" x="0px" y="0px"
	 viewBox="0 0 841.9 595.3" style="enable-background:new 0 0 841.9 595.3;" xml:space="preserve">
<style type="text/css">
	.st0{fill:#51AD32;}
	.st1{fill:url(#XMLID_25_);}
	.st2{fill:url(#XMLID_26_);}
	.st3{fill:url(#XMLID_28_);}
	.st4{fill:url(#XMLID_29_);}
	.st5{fill:#FFFFFF;}
	.st6{fill:#0E0F0E;}
</style>
<g id="XMLID_1_">
	<g id="XMLID_2_">
		<g id="XMLID_152_">
			<path id="XMLID_18_" class="st0" d="M512.3,190.3c-10.8-35.3-31.1-65.3-53.4-94.1c-11.3-14.6-23.6-28.3-36.2-41.7
				c-0.7-0.8-1.4-1.6-2.1-2.3c0,0,0,0,0,0c-0.7-0.7-1.5-1.1-2.4-1.1c-1,0-2.1,0.6-3.5,2c-20.2,21.6-39.4,43.8-55.9,67.9
				c-10,15.2-23.8,38.6-32.2,60.3c-4.9,12.7-8,26-7.8,40.8c-0.7,24.9,12.2,43.8,31.4,59.3c20.2,16.2,42.5,29.2,63.8,43.8
				c1.4,0.9,2.7,1.6,4,1.6l0,0c1,0,2-0.3,3-1c20.9-13.4,46.6-30.8,52.9-35.4c2.8-2,5.5-4.1,8.2-6.2c2.7-2.1,5.4-4.3,8-6.5
				C518.1,253.7,522.6,223.7,512.3,190.3z"/>
			<g id="XMLID_158_">
				<g id="XMLID_159_">
					<g id="XMLID_160_">
						<g id="XMLID_161_">
							<linearGradient id="XMLID_25_" gradientUnits="userSpaceOnUse" x1="388.3502" y1="230.275" x2="488.2326" y2="130.3926">
								<stop  offset="0" style="stop-color:#51AD32"/>
								<stop  offset="1" style="stop-color:#009377"/>
							</linearGradient>
							<path id="XMLID_162_" class="st1" d="M512.3,190.3c-10.8-35.3-31.1-65.3-53.4-94.1c-11.3-14.6-23.6-28.3-36.2-41.7
								c-0.7-0.8-1.4-1.6-2.1-2.3c0,0,0,0,0,0c-0.7-0.7-1.5-1.1-2.4-1.1l0,0c-0.2,0.7-15.4,82.1-8.2,197
								c15.5,15.6,35.6,30,61.7,41.2c0.8,0.4,1.6,0.6,2.4,1c2.8-2,5.5-4.1,8.2-6.2c2.7-2.1,5.4-4.3,8-6.5
								C518.1,253.7,522.6,223.7,512.3,190.3z"/>
						</g>
					</g>
				</g>
			</g>
			<g id="XMLID_156_">
				<linearGradient id="XMLID_26_" gradientUnits="userSpaceOnUse" x1="369.292" y1="193.5388" x2="426.2899" y2="136.5409">
					<stop  offset="0" style="stop-color:#AECB45"/>
					<stop  offset="1" style="stop-color:#51AD32"/>
				</linearGradient>
				<path id="XMLID_157_" class="st2" d="M409.9,248.1c-7.2-115,8.2-197.1,8.2-197.1c-1,0-2.1,0.6-3.5,2
					c-20.2,21.6-39.4,43.8-55.9,67.9C358.8,121,354.7,192.4,409.9,248.1L409.9,248.1z"/>
			</g>
			<linearGradient id="XMLID_28_" gradientUnits="userSpaceOnUse" x1="403.8643" y1="307.2453" x2="452.2033" y2="258.9063">
				<stop  offset="0" style="stop-color:#AECB45"/>
				<stop  offset="1" style="stop-color:#51AD32"/>
			</linearGradient>
			<path id="XMLID_155_" class="st3" d="M474,290.2c-0.8-0.3-1.6-0.6-2.4-1c-26.1-11.2-46.2-25.6-61.7-41.2c0,0,1.7,25.2,8.2,78.5
				c1,0,2-0.3,3-1C442.1,312.2,467.7,294.8,474,290.2z"/>
			<g id="XMLID_153_">
				<linearGradient id="XMLID_29_" gradientUnits="userSpaceOnUse" x1="350.4846" y1="261.7283" x2="404.708" y2="207.5049">
					<stop  offset="0" style="stop-color:#FFEE2B"/>
					<stop  offset="1" style="stop-color:#AECB45"/>
				</linearGradient>
				<path id="XMLID_154_" class="st4" d="M409.9,248.1C409.9,248.1,409.9,248.1,409.9,248.1C354.7,192.4,358.8,121,358.8,121
					c-10,15.2-23.8,38.6-32.2,60.3c-4.9,12.7-8,26-7.8,40.8c-0.7,24.9,12.2,43.8,31.4,59.3c20.2,16.2,42.5,29.2,63.8,43.8
					c1.4,0.9,2.7,1.6,4,1.6C413.3,287.3,409.9,248.1,409.9,248.1z"/>
			</g>
		</g>
		<g id="XMLID_145_">
			<path id="XMLID_149_" class="st5" d="M497,197.9l12.8-15.3c-1.5-4.5-3.3-9-5.2-13.3l-17.3,20.8c-3-1.2-6.2-1.7-9.6-1.4
				c-11.5,1-20.1,11.3-19,22.8c1,11.5,11.3,20.1,22.8,19c11.5-1,20.1-11.3,19-22.8C500.2,204.1,498.9,200.8,497,197.9z M480.6,221.2
				c-6.3,0.6-11.9-4.1-12.5-10.4c-0.6-6.3,4.1-11.9,10.4-12.5c6.3-0.6,11.9,4.1,12.5,10.4C491.6,215,487,220.6,480.6,221.2z"/>
			<path id="XMLID_146_" class="st5" d="M478.2,122.5l-18.9,22.9c-3.2-1.5-6.9-2.2-10.7-1.9c-11.5,1-20.1,11.3-19,22.8
				c1,11.5,11.3,20.1,22.8,19c11.5-1,20.1-11.3,19-22.8c-0.3-3.2-1.3-6.2-2.9-8.8l16.8-20.3C483.2,129.7,480.6,125.8,478.2,122.5z
				 M451.6,176c-6.3,0.6-11.9-4.1-12.5-10.4c-0.6-6.3,4.1-11.9,10.4-12.5c6.3-0.6,11.9,4.1,12.5,10.4
				C462.6,169.8,457.9,175.4,451.6,176z"/>
		</g>
	</g>
	<g id="XMLID_3_">
		<g id="XMLID_128_">
			<g id="XMLID_129_">
				<g id="XMLID_130_">
					<path id="XMLID_143_" class="st6" d="M134.3,471.8v-59.2c0-3.8-0.1-7.7-0.2-11.7c-0.2-4-0.5-7.9-1.1-11.7h19.3l1.8,16.4
						l-1.8,0.2c2.2-5.9,5.7-10.5,10.5-13.7c4.8-3.3,10.5-4.9,17-4.9c7.7,0,13.8,1.9,18.2,5.8c4.4,3.9,7.3,9.8,8.6,17.7l-3.9-3.6
						c2.2-6,5.9-10.8,11.1-14.5c5.2-3.7,11.3-5.5,18.3-5.5c9.3,0,16.2,2.8,20.8,8.4c4.6,5.6,6.9,14.1,6.9,25.6v50.7h-20.4v-50
						c0-6.3-1.1-11-3.2-14c-2.1-3-5.6-4.5-10.5-4.5c-5.7,0-10.1,2-13.3,6c-3.2,4-4.8,9.5-4.8,16.4v46.1h-20.4v-50
						c0-6.3-1.1-11-3.4-14c-2.2-3-5.8-4.5-10.5-4.5c-5.8,0-10.3,2-13.5,6c-3.2,4-4.8,9.5-4.8,16.4v46.1H134.3z"/>
					<path id="XMLID_140_" class="st6" d="M280.3,351.8H303v20.1h-22.7V351.8z M281.3,471.8v-82.6h20.4v82.6H281.3z"/>
					<path id="XMLID_138_" class="st6" d="M323.8,471.8v-59.2c0-3.9-0.1-7.9-0.2-11.8c-0.2-3.9-0.5-7.8-1.1-11.6h19.3l1.8,16.4
						l-1.8,0.5c2.6-6.2,6.5-10.9,11.7-14.2c5.2-3.2,11.1-4.8,17.9-4.8c19.6,0,29.4,11.3,29.4,34v50.7h-20.4v-49.9
						c0-6.4-1.3-11.1-3.8-14.1c-2.5-3-6.4-4.5-11.6-4.5c-6.3,0-11.4,2-15.1,6c-3.8,4-5.6,9.2-5.6,15.8v46.8H323.8z"/>
					<path id="XMLID_137_" class="st6" d="M470.4,404.6v-15.4h-21.9v-27l-20.4,6.9v20.1h-15.9v15.4H428v37.9
						c0,9.8,2.5,17.3,7.6,22.6c5.1,5.2,12.2,7.9,21.5,7.9c2.4,0,4.7-0.1,6.8-0.4c2.1-0.3,4.3-0.8,6.5-1.6v-16.2
						c-1.6,0.4-3.1,0.8-4.4,1c-1.3,0.2-2.7,0.3-4.1,0.3c-2.5,0-4.8-0.4-6.8-1.3c-2-0.9-3.6-2.4-4.8-4.5c-1.2-2.1-1.8-5-1.8-8.7v-37
						H470.4z"/>
					<path id="XMLID_135_" class="st0" d="M514.7,473c-15,0-26.9-3.4-35.7-10.3l5.7-14.4c4.4,3.3,9.1,5.7,14.2,7.4
						c5.1,1.6,10.5,2.5,16,2.5c5,0,8.8-0.8,11.4-2.5c2.6-1.6,3.9-3.9,3.9-6.9c0-2.5-0.9-4.5-2.8-6c-1.9-1.5-5-2.8-9.5-3.8l-13.7-3.1
						c-7.5-1.6-13.2-4.4-16.9-8.3c-3.8-3.9-5.6-8.8-5.6-14.8c0-5,1.4-9.5,4.3-13.3c2.8-3.9,6.8-6.9,11.9-9.1
						c5.1-2.2,11.1-3.3,17.8-3.3c5.9,0,11.6,0.9,17,2.7c5.4,1.8,10.2,4.4,14.2,7.8l-5.9,14.1c-4.1-3.2-8.4-5.5-12.7-7
						c-4.3-1.5-8.6-2.3-12.8-2.3c-4.7,0-8.3,0.9-11,2.6c-2.6,1.7-3.9,4.1-3.9,7.2c0,2.4,0.8,4.3,2.4,5.7c1.6,1.4,4.3,2.6,8.3,3.4
						l13.9,3.4c8.2,1.7,14.1,4.6,17.9,8.4c3.8,3.9,5.6,9,5.6,15.3c0,7.5-3.1,13.5-9.2,17.9C533.6,470.8,525.3,473,514.7,473z"/>
					<path id="XMLID_132_" class="st0" d="M638.7,428.5c0-8.5-1.5-15.9-4.5-22.1c-3-6.2-7.2-11-12.7-14.3c-5.5-3.3-12-5-19.6-5
						c-7.8,0-14.8,1.8-20.8,5.5c-6,3.7-10.7,8.7-14.1,15.2c-3.4,6.5-5.1,14-5.1,22.5c0,8.8,1.7,16.5,5.2,22.9
						c3.5,6.4,8.5,11.3,15,14.7c6.5,3.4,14.2,5.1,23.1,5.1c5.9,0,11.7-0.9,17.4-2.7c5.7-1.8,10.5-4.3,14.5-7.6l-5.9-14.1
						c-3.7,2.8-7.7,5-12,6.5c-4.3,1.5-8.7,2.2-13.2,2.2c-8.2,0-14.3-2.3-18.3-7c-3.6-4.2-5.6-10.4-6-18.7h56.8V428.5z M602.3,401.8
						c6.1,0,10.8,2.1,14,6.2c2.4,3.1,3.9,7.3,4.4,12.6h-38.3c0.8-4.8,2.3-8.8,4.7-11.9C590.7,404.1,595.8,401.8,602.3,401.8z"/>
					<path id="XMLID_131_" class="st0" d="M702.8,404.6v-15.4h-21.9v-27l-20.4,6.9v20.1h-15.9v15.4h15.9v37.9
						c0,9.8,2.5,17.3,7.6,22.6c5.1,5.2,12.2,7.9,21.5,7.9c2.4,0,4.7-0.1,6.8-0.4c2.1-0.3,4.3-0.8,6.5-1.6v-16.2
						c-1.6,0.4-3.1,0.8-4.4,1c-1.3,0.2-2.7,0.3-4.1,0.3c-2.5,0-4.8-0.4-6.8-1.3c-2-0.9-3.6-2.4-4.8-4.5c-1.2-2.1-1.8-5-1.8-8.7v-37
						H702.8z"/>
				</g>
			</g>
		</g>
		<g id="XMLID_22_">
			<g id="XMLID_24_">
				<g id="XMLID_27_">
					<g id="XMLID_76_">
						<path id="XMLID_126_" class="st6" d="M134.1,530.8v-36.7h4.8v32.6H156v4.1H134.1z"/>
						<path id="XMLID_124_" class="st6" d="M161.5,508.6l1.7-14.5h5.5l-3.9,14.5H161.5z"/>
						<path id="XMLID_122_" class="st6" d="M178.2,530.8v-36.7h22v4.1H183v11.5h16.2v4.1H183v13h17.9v4.1H178.2z"/>
						<path id="XMLID_120_" class="st6" d="M220,527.3c1,0,1.9-0.1,2.7-0.3c0.8-0.2,1.5-0.4,2.1-0.8c0.6-0.3,1.1-0.8,1.5-1.3
							c0.4-0.5,0.7-1.1,0.9-1.8c0.2-0.7,0.3-1.4,0.3-2.2c0-0.9-0.1-1.6-0.3-2.2c-0.2-0.6-0.5-1.2-1.1-1.7c-0.5-0.5-1.2-1-2.1-1.4
							c-0.9-0.4-2.1-0.9-3.6-1.3c-0.2-0.1-0.5-0.2-1.1-0.3c-0.6-0.2-1-0.3-1.1-0.3c-3.5-1-6.1-2.3-7.7-3.8c-1.6-1.5-2.4-3.8-2.4-6.7
							c0-2.1,0.5-3.8,1.6-5.3c1.1-1.5,2.5-2.6,4.3-3.3c1.8-0.7,3.9-1.1,6.2-1.1c5,0,8.7,1.3,11.3,3.8l-2.4,3.3
							c-0.9-0.8-2-1.6-3.5-2.1c-1.5-0.6-3.1-0.9-4.9-0.9c-2.3,0-4.2,0.5-5.6,1.4c-1.4,0.9-2.1,2.3-2.1,4.1c0,1.2,0.2,2.2,0.5,2.9
							c0.3,0.7,0.9,1.3,1.8,1.8c0.9,0.5,2.2,1.1,3.9,1.6c0,0,0.3,0.1,0.9,0.3c0.6,0.2,1,0.3,1.2,0.3c2.1,0.6,3.9,1.3,5.3,2
							c1.4,0.7,2.5,1.5,3.3,2.4c0.8,0.9,1.4,1.9,1.8,3c0.3,1.1,0.5,2.4,0.5,3.9c0,1.7-0.3,3.2-1,4.5c-0.6,1.3-1.5,2.4-2.7,3.2
							s-2.5,1.4-3.9,1.9c-1.5,0.4-3.1,0.6-4.8,0.6c-2.7,0-5.2-0.5-7.4-1.4s-3.7-1.8-4.7-2.8l2.1-3.5c1.1,0.9,2.5,1.7,4.2,2.4
							C216.2,526.9,218.1,527.3,220,527.3z"/>
						<path id="XMLID_117_" class="st6" d="M242,530.8v-36.7h10.6c1.8,0,3.5,0.1,4.8,0.2c1.4,0.2,2.7,0.4,3.9,0.9
							c1.3,0.4,2.3,1,3.1,1.8s1.4,1.7,1.9,2.9c0.5,1.2,0.7,2.6,0.7,4.3c0,1.8-0.3,3.4-0.9,4.7s-1.5,2.3-2.7,3.1s-2.6,1.3-4.2,1.7
							c-1.6,0.3-3.5,0.5-5.6,0.5h-6.8v16.6H242z M246.8,510.1h6.7c2.9,0,5.1-0.4,6.5-1.3c1.4-0.9,2.1-2.4,2.1-4.6
							c0-0.8-0.1-1.6-0.3-2.2c-0.2-0.6-0.4-1.2-0.8-1.6s-0.8-0.8-1.3-1.1c-0.5-0.3-1.1-0.5-1.8-0.7c-0.7-0.2-1.4-0.3-2.2-0.3
							c-0.8-0.1-1.7-0.1-2.7-0.1c0,0-0.1,0-0.1,0c0,0-0.1,0-0.1,0c0,0-0.1,0-0.1,0c0,0-0.1,0-0.1,0s-0.1,0-0.1,0h-5.8V510.1z"/>
						<path id="XMLID_114_" class="st6" d="M275.1,530.8v-36.7h11.7c1.5,0,2.9,0.1,4.1,0.2c1.2,0.2,2.3,0.5,3.4,0.9
							c1.1,0.4,2,1,2.7,1.7c0.7,0.7,1.3,1.7,1.7,2.8c0.4,1.2,0.6,2.5,0.6,4.1c0,2.3-0.6,4.2-1.8,5.8c-1.2,1.5-3,2.6-5.4,3.1
							c1.4,0.4,2.5,1.2,3.3,2.3s1.6,2.7,2.4,4.7l4.3,11.1h-5.1l-4-10.8c-0.6-1.5-1.1-2.7-1.6-3.4s-1.1-1.3-1.9-1.6
							c-0.8-0.3-1.8-0.5-3.2-0.5h-6.6v16.3H275.1z M279.9,510.4h6.8c2.4,0,4.3-0.5,5.7-1.5c1.3-1,2-2.6,2-4.9c0-0.9-0.1-1.7-0.3-2.4
							c-0.2-0.7-0.5-1.2-0.8-1.7c-0.4-0.5-0.8-0.8-1.4-1.1c-0.6-0.3-1.3-0.5-2-0.6c-0.7-0.1-1.6-0.2-2.6-0.2c0,0-0.1,0-0.1,0
							s-0.1,0-0.1,0c0,0-0.1,0-0.1,0h-7.1V510.4z"/>
						<path id="XMLID_112_" class="st6" d="M311.2,530.8v-36.7h4.8v36.7H311.2z"/>
						<path id="XMLID_110_" class="st6" d="M334.3,530.8v-32.6h-11.7v-4.1h28.3v4.1h-11.8v32.6H334.3z"/>
						<path id="XMLID_107_" class="st6" d="M374.1,530.8v-36.7h9c7.1,0,12.5,1.5,16.3,4.5c3.7,3,5.6,7.6,5.6,13.9
							c0,5.8-1.7,10.4-5.2,13.5c-3.5,3.2-8.5,4.8-15,4.8H374.1z M378.9,526.7h6.1c4.9,0,8.6-1.2,11.1-3.7c2.5-2.5,3.8-6,3.8-10.5
							c0-4.9-1.3-8.5-4-10.8c-2.7-2.3-6.8-3.5-12.3-3.5h-4.7V526.7z"/>
						<path id="XMLID_105_" class="st6" d="M412.3,508.6l1.7-14.5h5.5l-3.9,14.5H412.3z"/>
						<path id="XMLID_103_" class="st6" d="M429.1,530.8v-36.7h22v4.1h-17.2v11.5h16.2v4.1h-16.2v13h17.9v4.1H429.1z"/>
						<path id="XMLID_101_" class="st6" d="M460.8,530.8v-36.7h5.1l17.7,25.8l2.7,4.3v-30.1h4.6v36.7h-5.1l-17.2-24.9l-3.2-5v29.9
							H460.8z"/>
						<path id="XMLID_99_" class="st6" d="M512.5,527.3c1,0,1.9-0.1,2.7-0.3c0.8-0.2,1.5-0.4,2.1-0.8c0.6-0.3,1.1-0.8,1.5-1.3
							c0.4-0.5,0.7-1.1,0.9-1.8c0.2-0.7,0.3-1.4,0.3-2.2c0-0.9-0.1-1.6-0.3-2.2c-0.2-0.6-0.5-1.2-1.1-1.7c-0.5-0.5-1.2-1-2.1-1.4
							c-0.9-0.4-2.1-0.9-3.6-1.3c-0.2-0.1-0.5-0.2-1.1-0.3c-0.6-0.2-1-0.3-1.1-0.3c-3.5-1-6.1-2.3-7.7-3.8c-1.6-1.5-2.4-3.8-2.4-6.7
							c0-2.1,0.5-3.8,1.6-5.3c1.1-1.5,2.5-2.6,4.3-3.3c1.8-0.7,3.9-1.1,6.2-1.1c5,0,8.7,1.3,11.3,3.8l-2.4,3.3
							c-0.9-0.8-2-1.6-3.5-2.1c-1.5-0.6-3.1-0.9-4.9-0.9c-2.3,0-4.2,0.5-5.6,1.4c-1.4,0.9-2.1,2.3-2.1,4.1c0,1.2,0.2,2.2,0.5,2.9
							c0.3,0.7,0.9,1.3,1.8,1.8c0.9,0.5,2.2,1.1,3.9,1.6c0,0,0.3,0.1,0.9,0.3c0.6,0.2,1,0.3,1.2,0.3c2.2,0.6,3.9,1.3,5.3,2
							c1.4,0.7,2.5,1.5,3.3,2.4s1.4,1.9,1.8,3c0.3,1.1,0.5,2.4,0.5,3.9c0,1.7-0.3,3.2-1,4.5c-0.6,1.3-1.5,2.4-2.7,3.2
							s-2.5,1.4-3.9,1.9s-3.1,0.6-4.8,0.6c-2.7,0-5.2-0.5-7.4-1.4c-2.2-0.9-3.7-1.8-4.7-2.8l2.1-3.5c1.1,0.9,2.5,1.7,4.2,2.4
							C508.8,526.9,510.6,527.3,512.5,527.3z"/>
						<path id="XMLID_97_" class="st6" d="M534.5,530.8v-36.7h22v4.1h-17.2v11.5h16.2v4.1h-16.2v13h17.9v4.1H534.5z"/>
						<path id="XMLID_95_" class="st6" d="M566.2,530.8v-36.7h5.8c0.4,1,2.3,5.3,5.7,12.9c3.4,7.7,5.9,13.5,7.6,17.5
							c1.7-4.1,4.3-9.9,7.7-17.5c3.4-7.6,5.3-12,5.7-12.9h5.7v36.7h-4.6v-28.9c-1.6,3.8-4,9.2-7.2,16.2c-3.2,7-5,11.2-5.6,12.6h-3.5
							l-10.9-24.5l-1.9-4.5v29.1H566.2z"/>
						<path id="XMLID_89_" class="st6" d="M616.1,530.8v-36.7h9.7c1.1,0,2.1,0,3,0.1c0.9,0.1,1.9,0.2,2.9,0.3c1,0.2,1.9,0.4,2.8,0.6
							c0.8,0.3,1.6,0.6,2.4,1.1c0.8,0.5,1.4,1,1.9,1.6c0.5,0.6,0.9,1.4,1.2,2.2c0.3,0.9,0.5,1.9,0.5,2.9c0,2-0.5,3.8-1.5,5.2
							c-1,1.4-2.5,2.4-4.5,3c2.5,0.4,4.4,1.4,5.8,3c1.4,1.6,2.1,3.6,2.1,6.1c0,3-1.1,5.5-3.4,7.5c-2.3,2-5.5,2.9-9.7,2.9H616.1z
							 M620.9,509.6h6.4c5.4,0,8.1-2,8.1-6c0-2.1-0.7-3.5-2.2-4.3c-1.5-0.8-3.7-1.2-6.7-1.2h-5.6V509.6z M620.9,526.7h7.4
							c2.8,0,5-0.6,6.5-1.7c1.5-1.1,2.3-2.7,2.3-4.8c0-2.5-0.7-4.2-2.2-5.2c-1.4-1-3.9-1.5-7.3-1.5h-6.8V526.7z"/>
						<path id="XMLID_87_" class="st6" d="M651.7,530.8v-36.7h4.8v32.6h17.1v4.1H651.7z"/>
						<path id="XMLID_84_" class="st6" d="M681,530.8v-36.7h22v4.1h-17.2v11.5h16.2v4.1h-16.2v13h17.9v4.1H681z"/>
					</g>
				</g>
			</g>
		</g>
	</g>
</g>
</svg>
