<svg xmlns="http://www.w3.org/2000/svg" xmlns:xlink="http://www.w3.org/1999/xlink" version="1.1" id="Layer_1" x="0px" y="0px" style="enable-background:new 0 0 841.9 595.3;" xml:space="preserve" viewBox="16.77 134.7 808.33 275.7">
<style type="text/css">
	.st0{fill:#0E0F0E;}
</style>
<g id="XMLID_3_">
	<g id="XMLID_6_">
		<path id="XMLID_9_" class="st0" d="M210.3,274c-0.8-2.6-1.6-5.1-2.5-7.6L195,281.6c1.9,2.8,3.2,6.2,3.5,9.8    c1,11.5-7.5,21.8-19,22.8c-11.5,1-21.8-7.5-22.8-19c-1-11.5,7.5-21.8,19-22.8c3.4-0.3,6.6,0.2,9.6,1.4l17.3-20.8    c-5.4-12.5-11.9-24.5-19.2-35.9l-16.8,20.3c1.6,2.6,2.6,5.6,2.9,8.8c1,11.5-7.5,21.8-19,22.8c-11.5,1-21.8-7.5-22.8-19    c-1-11.5,7.5-21.8,19-22.8c3.8-0.3,7.4,0.4,10.7,1.9l18.9-22.9c-6.1-9-12.7-17.7-19.4-26.4c-11.3-14.6-23.6-28.3-36.2-41.7    c-0.7-0.8-1.4-1.6-2.1-2.3c0,0,0,0,0,0c-0.7-0.7-1.5-1.1-2.4-1.1c-1,0-2.1,0.6-3.5,2c-20.2,21.6-39.4,43.8-55.9,67.9    c-10,15.2-23.8,38.6-32.2,60.3c-4.9,12.7-8,26-7.8,40.8C16.1,330.7,29,349.6,48.2,365c20.2,16.2,42.5,29.2,63.8,43.8    c1.4,0.9,2.7,1.6,4,1.6l0,0c1,0,2-0.3,3-1c20.9-13.4,46.6-30.8,52.9-35.4c2.8-2,5.5-4.1,8.2-6.2c2.7-2.1,5.4-4.3,8-6.5    C216.1,337.4,220.5,307.4,210.3,274z"/>
		<path id="XMLID_13_" class="st0" d="M147.5,236.7c-6.3,0.6-11,6.2-10.4,12.5c0.6,6.3,6.2,11,12.5,10.4c6.3-0.6,11-6.2,10.4-12.5    C159.4,240.8,153.8,236.1,147.5,236.7z"/>
		<path id="XMLID_14_" class="st0" d="M176.5,281.9c-6.3,0.6-11,6.2-10.4,12.5c0.6,6.3,6.2,11,12.5,10.4s11-6.2,10.4-12.5    C188.5,286,182.8,281.3,176.5,281.9z"/>
	</g>
	<g id="XMLID_2_">
		<g id="XMLID_128_">
			<g id="XMLID_129_">
				<g id="XMLID_130_">
					<path id="XMLID_143_" class="st0" d="M255.6,302.8v-59.2c0-3.8-0.1-7.7-0.2-11.7c-0.2-4-0.5-7.9-1.1-11.7h19.3l1.8,16.4       l-1.8,0.2c2.2-5.9,5.7-10.5,10.5-13.7c4.8-3.3,10.5-4.9,17-4.9c7.7,0,13.8,1.9,18.2,5.8c4.4,3.9,7.3,9.8,8.6,17.7L324,238       c2.2-6,5.9-10.8,11.1-14.5c5.2-3.7,11.3-5.5,18.3-5.5c9.3,0,16.2,2.8,20.8,8.4c4.6,5.6,6.9,14.1,6.9,25.6v50.7h-20.4v-50       c0-6.3-1.1-11-3.2-14c-2.1-3-5.6-4.5-10.5-4.5c-5.7,0-10.1,2-13.3,6c-3.2,4-4.8,9.5-4.8,16.4v46.1h-20.4v-50       c0-6.3-1.1-11-3.4-14c-2.2-3-5.8-4.5-10.5-4.5c-5.8,0-10.3,2-13.5,6c-3.2,4-4.8,9.5-4.8,16.4v46.1H255.6z"/>
					<path id="XMLID_140_" class="st0" d="M401.7,182.7h22.7v20.1h-22.7V182.7z M402.7,302.8v-82.6h20.4v82.6H402.7z"/>
					<path id="XMLID_138_" class="st0" d="M445.2,302.8v-59.2c0-3.9-0.1-7.9-0.2-11.8c-0.2-3.9-0.5-7.8-1.1-11.6h19.3l1.8,16.4       l-1.8,0.5c2.6-6.2,6.5-10.9,11.7-14.2c5.2-3.2,11.1-4.8,17.9-4.8c19.6,0,29.4,11.3,29.4,34v50.7h-20.4v-49.9       c0-6.4-1.3-11.1-3.8-14.1c-2.5-3-6.4-4.5-11.6-4.5c-6.3,0-11.4,2-15.1,6c-3.8,4-5.6,9.2-5.6,15.8v46.8H445.2z"/>
					<path id="XMLID_137_" class="st0" d="M591.7,235.5v-15.4h-21.9v-27l-20.4,6.9v20.1h-15.9v15.4h15.9v37.9       c0,9.8,2.5,17.3,7.6,22.6c5.1,5.2,12.2,7.9,21.5,7.9c2.4,0,4.7-0.1,6.8-0.4c2.1-0.3,4.3-0.8,6.5-1.6v-16.2       c-1.6,0.4-3.1,0.8-4.4,1c-1.3,0.2-2.7,0.3-4.1,0.3c-2.5,0-4.8-0.4-6.8-1.3c-2-0.9-3.6-2.4-4.8-4.5c-1.2-2.1-1.8-5-1.8-8.7v-37       H591.7z"/>
					<path id="XMLID_135_" class="st0" d="M636,303.9c-15,0-26.9-3.4-35.7-10.3l5.7-14.4c4.4,3.3,9.1,5.7,14.2,7.4       c5.1,1.6,10.5,2.5,16,2.5c5,0,8.8-0.8,11.4-2.5c2.6-1.6,3.9-3.9,3.9-6.9c0-2.5-0.9-4.5-2.8-6c-1.9-1.5-5-2.8-9.5-3.8l-13.7-3.1       c-7.5-1.6-13.2-4.4-16.9-8.3c-3.8-3.9-5.6-8.8-5.6-14.8c0-5,1.4-9.5,4.3-13.3s6.8-6.9,11.9-9.1c5.1-2.2,11.1-3.3,17.8-3.3       c5.9,0,11.6,0.9,17,2.7c5.4,1.8,10.2,4.4,14.2,7.8l-5.9,14.1c-4.1-3.2-8.4-5.5-12.7-7c-4.3-1.5-8.6-2.3-12.8-2.3       c-4.7,0-8.3,0.9-11,2.6c-2.6,1.7-3.9,4.1-3.9,7.2c0,2.4,0.8,4.3,2.4,5.7c1.6,1.4,4.3,2.6,8.3,3.4l13.9,3.4       c8.2,1.7,14.1,4.6,17.9,8.4c3.8,3.9,5.6,9,5.6,15.3c0,7.5-3.1,13.5-9.2,17.9C655,301.7,646.6,303.9,636,303.9z"/>
					<path id="XMLID_132_" class="st0" d="M760,259.4c0-8.5-1.5-15.9-4.5-22.1c-3-6.2-7.2-11-12.7-14.3c-5.5-3.3-12-5-19.6-5       c-7.8,0-14.8,1.8-20.8,5.5c-6,3.7-10.7,8.7-14.1,15.2c-3.4,6.5-5.1,14-5.1,22.5c0,8.8,1.7,16.5,5.2,22.9       c3.5,6.4,8.5,11.3,15,14.7c6.5,3.4,14.2,5.1,23.1,5.1c5.9,0,11.7-0.9,17.4-2.7c5.7-1.8,10.5-4.3,14.5-7.6l-5.9-14.1       c-3.7,2.8-7.7,5-12,6.5c-4.3,1.5-8.7,2.2-13.2,2.2c-8.2,0-14.3-2.3-18.3-7c-3.6-4.2-5.6-10.4-6-18.7H760V259.4z M723.7,232.8       c6.1,0,10.8,2.1,14,6.2c2.4,3.1,3.9,7.3,4.4,12.6h-38.3c0.8-4.8,2.3-8.8,4.7-11.9C712.1,235.1,717.2,232.8,723.7,232.8z"/>
					<path id="XMLID_131_" class="st0" d="M824.1,235.5v-15.4h-21.9v-27l-20.4,6.9v20.1h-15.9v15.4h15.9v37.9       c0,9.8,2.5,17.3,7.6,22.6c5.1,5.2,12.2,7.9,21.5,7.9c2.4,0,4.7-0.1,6.8-0.4c2.1-0.3,4.3-0.8,6.5-1.6v-16.2       c-1.6,0.4-3.1,0.8-4.4,1c-1.3,0.2-2.7,0.3-4.1,0.3c-2.5,0-4.8-0.4-6.8-1.3c-2-0.9-3.6-2.4-4.8-4.5c-1.2-2.1-1.8-5-1.8-8.7v-37       H824.1z"/>
				</g>
			</g>
		</g>
		<g id="XMLID_22_">
			<g id="XMLID_24_">
				<g id="XMLID_27_">
					<g id="XMLID_76_">
						<path id="XMLID_126_" class="st0" d="M255.5,361.7V325h4.8v32.6h17.1v4.1H255.5z"/>
						<path id="XMLID_124_" class="st0" d="M282.8,339.5l1.7-14.5h5.5l-3.9,14.5H282.8z"/>
						<path id="XMLID_122_" class="st0" d="M299.6,361.7V325h22v4.1h-17.2v11.5h16.2v4.1h-16.2v13h17.9v4.1H299.6z"/>
						<path id="XMLID_120_" class="st0" d="M341.3,358.2c1,0,1.9-0.1,2.7-0.3c0.8-0.2,1.5-0.4,2.1-0.8c0.6-0.3,1.1-0.8,1.5-1.3        s0.7-1.1,0.9-1.8c0.2-0.7,0.3-1.4,0.3-2.2c0-0.9-0.1-1.6-0.3-2.2c-0.2-0.6-0.5-1.2-1.1-1.7c-0.5-0.5-1.2-1-2.1-1.4        c-0.9-0.4-2.1-0.9-3.6-1.3c-0.2-0.1-0.5-0.2-1.1-0.3c-0.6-0.2-1-0.3-1.1-0.3c-3.5-1-6.1-2.3-7.7-3.8c-1.6-1.5-2.4-3.8-2.4-6.7        c0-2.1,0.5-3.8,1.6-5.3c1.1-1.5,2.5-2.6,4.3-3.3c1.8-0.7,3.9-1.1,6.2-1.1c5,0,8.7,1.3,11.3,3.8l-2.4,3.3        c-0.9-0.8-2-1.6-3.5-2.1c-1.5-0.6-3.1-0.9-4.9-0.9c-2.3,0-4.2,0.5-5.6,1.4c-1.4,0.9-2.1,2.3-2.1,4.1c0,1.2,0.2,2.2,0.5,2.9        c0.3,0.7,0.9,1.3,1.8,1.8c0.9,0.5,2.2,1.1,3.9,1.6c0,0,0.3,0.1,0.9,0.3c0.6,0.2,1,0.3,1.2,0.3c2.1,0.6,3.9,1.3,5.3,2        c1.4,0.7,2.5,1.5,3.3,2.4c0.8,0.9,1.4,1.9,1.8,3c0.3,1.1,0.5,2.4,0.5,3.9c0,1.7-0.3,3.2-1,4.5c-0.6,1.3-1.5,2.4-2.7,3.2        c-1.1,0.8-2.5,1.4-3.9,1.9s-3.1,0.6-4.8,0.6c-2.7,0-5.2-0.5-7.4-1.4c-2.2-0.9-3.7-1.8-4.7-2.8l2.1-3.5        c1.1,0.9,2.5,1.7,4.2,2.4C337.6,357.9,339.4,358.2,341.3,358.2z"/>
						<path id="XMLID_117_" class="st0" d="M363.3,361.7V325h10.6c1.8,0,3.5,0.1,4.8,0.2c1.4,0.2,2.7,0.4,3.9,0.9s2.3,1,3.1,1.8        c0.8,0.7,1.4,1.7,1.9,2.9c0.5,1.2,0.7,2.6,0.7,4.3c0,1.8-0.3,3.4-0.9,4.7c-0.6,1.3-1.5,2.3-2.7,3.1c-1.2,0.8-2.6,1.3-4.2,1.7        c-1.6,0.3-3.5,0.5-5.6,0.5h-6.8v16.6H363.3z M368.1,341h6.7c2.9,0,5.1-0.4,6.5-1.3c1.4-0.9,2.1-2.4,2.1-4.6        c0-0.8-0.1-1.6-0.3-2.2c-0.2-0.6-0.4-1.2-0.8-1.6c-0.4-0.4-0.8-0.8-1.3-1.1c-0.5-0.3-1.1-0.5-1.8-0.7        c-0.7-0.2-1.4-0.3-2.2-0.3c-0.8-0.1-1.7-0.1-2.7-0.1c0,0-0.1,0-0.1,0c0,0-0.1,0-0.1,0s-0.1,0-0.1,0c0,0-0.1,0-0.1,0        s-0.1,0-0.1,0h-5.8V341z"/>
						<path id="XMLID_114_" class="st0" d="M396.5,361.7V325h11.7c1.5,0,2.9,0.1,4.1,0.2c1.2,0.2,2.3,0.5,3.4,0.9s2,1,2.7,1.7        c0.7,0.7,1.3,1.7,1.7,2.8c0.4,1.2,0.6,2.5,0.6,4.1c0,2.3-0.6,4.2-1.8,5.8c-1.2,1.5-3,2.6-5.4,3.1c1.4,0.4,2.5,1.2,3.3,2.3        s1.6,2.7,2.4,4.7l4.3,11.1h-5.1l-4-10.8c-0.6-1.5-1.1-2.7-1.6-3.4c-0.5-0.7-1.1-1.3-1.9-1.6c-0.8-0.3-1.8-0.5-3.2-0.5h-6.6        v16.3H396.5z M401.3,341.4h6.8c2.4,0,4.3-0.5,5.7-1.5c1.3-1,2-2.6,2-4.9c0-0.9-0.1-1.7-0.3-2.4c-0.2-0.7-0.5-1.2-0.8-1.7        c-0.4-0.5-0.8-0.8-1.4-1.1c-0.6-0.3-1.3-0.5-2-0.6c-0.7-0.1-1.6-0.2-2.6-0.2c0,0-0.1,0-0.1,0s-0.1,0-0.1,0c0,0-0.1,0-0.1,0        h-7.1V341.4z"/>
						<path id="XMLID_112_" class="st0" d="M432.6,361.7V325h4.8v36.7H432.6z"/>
						<path id="XMLID_110_" class="st0" d="M455.7,361.7v-32.6h-11.7V325h28.3v4.1h-11.8v32.6H455.7z"/>
						<path id="XMLID_107_" class="st0" d="M495.5,361.7V325h9c7.1,0,12.5,1.5,16.3,4.5c3.7,3,5.6,7.6,5.6,13.9        c0,5.8-1.7,10.4-5.2,13.5s-8.5,4.8-15,4.8H495.5z M500.3,357.7h6.1c4.9,0,8.6-1.2,11.1-3.7c2.5-2.5,3.8-6,3.8-10.5        c0-4.9-1.3-8.5-4-10.8c-2.7-2.3-6.8-3.5-12.3-3.5h-4.7V357.7z"/>
						<path id="XMLID_105_" class="st0" d="M533.7,339.5l1.7-14.5h5.5l-3.9,14.5H533.7z"/>
						<path id="XMLID_103_" class="st0" d="M550.4,361.7V325h22v4.1h-17.2v11.5h16.2v4.1h-16.2v13h17.9v4.1H550.4z"/>
						<path id="XMLID_101_" class="st0" d="M582.2,361.7V325h5.1l17.7,25.8l2.7,4.3V325h4.6v36.7h-5.1l-17.2-24.9l-3.2-5v29.9H582.2        z"/>
						<path id="XMLID_99_" class="st0" d="M633.9,358.2c1,0,1.9-0.1,2.7-0.3c0.8-0.2,1.5-0.4,2.1-0.8c0.6-0.3,1.1-0.8,1.5-1.3        c0.4-0.5,0.7-1.1,0.9-1.8c0.2-0.7,0.3-1.4,0.3-2.2c0-0.9-0.1-1.6-0.3-2.2c-0.2-0.6-0.5-1.2-1.1-1.7c-0.5-0.5-1.2-1-2.1-1.4        c-0.9-0.4-2.1-0.9-3.6-1.3c-0.2-0.1-0.5-0.2-1.1-0.3c-0.6-0.2-1-0.3-1.1-0.3c-3.5-1-6.1-2.3-7.7-3.8c-1.6-1.5-2.4-3.8-2.4-6.7        c0-2.1,0.5-3.8,1.6-5.3c1.1-1.5,2.5-2.6,4.3-3.3c1.8-0.7,3.9-1.1,6.2-1.1c5,0,8.7,1.3,11.3,3.8l-2.4,3.3        c-0.9-0.8-2-1.6-3.5-2.1c-1.5-0.6-3.1-0.9-4.9-0.9c-2.3,0-4.2,0.5-5.6,1.4c-1.4,0.9-2.1,2.3-2.1,4.1c0,1.2,0.2,2.2,0.5,2.9        c0.3,0.7,0.9,1.3,1.8,1.8c0.9,0.5,2.2,1.1,3.9,1.6c0,0,0.3,0.1,0.9,0.3c0.6,0.2,1,0.3,1.2,0.3c2.2,0.6,3.9,1.3,5.3,2        c1.4,0.7,2.5,1.5,3.3,2.4s1.4,1.9,1.8,3c0.3,1.1,0.5,2.4,0.5,3.9c0,1.7-0.3,3.2-1,4.5c-0.6,1.3-1.5,2.4-2.7,3.2        c-1.1,0.8-2.5,1.4-3.9,1.9s-3.1,0.6-4.8,0.6c-2.7,0-5.2-0.5-7.4-1.4s-3.7-1.8-4.7-2.8l2.1-3.5c1.1,0.9,2.5,1.7,4.2,2.4        C630.1,357.9,632,358.2,633.9,358.2z"/>
						<path id="XMLID_97_" class="st0" d="M655.8,361.7V325h22v4.1h-17.2v11.5h16.2v4.1h-16.2v13h17.9v4.1H655.8z"/>
						<path id="XMLID_95_" class="st0" d="M687.6,361.7V325h5.8c0.4,1,2.3,5.3,5.7,12.9c3.4,7.7,5.9,13.5,7.6,17.5        c1.7-4.1,4.3-9.9,7.7-17.5c3.4-7.6,5.3-12,5.7-12.9h5.7v36.7h-4.6v-28.9c-1.6,3.8-4,9.2-7.2,16.2c-3.2,7-5,11.2-5.6,12.6H705        l-10.9-24.5l-1.9-4.5v29.1H687.6z"/>
						<path id="XMLID_89_" class="st0" d="M737.5,361.7V325h9.7c1.1,0,2.1,0,3,0.1c0.9,0.1,1.9,0.2,2.9,0.3c1,0.2,1.9,0.4,2.8,0.6        c0.8,0.3,1.6,0.6,2.4,1.1c0.8,0.5,1.4,1,1.9,1.6c0.5,0.6,0.9,1.4,1.2,2.2c0.3,0.9,0.5,1.9,0.5,2.9c0,2-0.5,3.8-1.5,5.2        c-1,1.4-2.5,2.4-4.5,3c2.5,0.4,4.4,1.4,5.8,3c1.4,1.6,2.1,3.6,2.1,6.1c0,3-1.1,5.5-3.4,7.5c-2.3,2-5.5,2.9-9.7,2.9H737.5z         M742.3,340.6h6.4c5.4,0,8.1-2,8.1-6c0-2.1-0.7-3.5-2.2-4.3c-1.5-0.8-3.7-1.2-6.7-1.2h-5.6V340.6z M742.3,357.6h7.4        c2.8,0,5-0.6,6.5-1.7c1.5-1.1,2.3-2.7,2.3-4.8c0-2.5-0.7-4.2-2.2-5.2c-1.4-1-3.9-1.5-7.3-1.5h-6.8V357.6z"/>
						<path id="XMLID_87_" class="st0" d="M773,361.7V325h4.8v32.6h17.1v4.1H773z"/>
						<path id="XMLID_84_" class="st0" d="M802.4,361.7V325h22v4.1h-17.2v11.5h16.2v4.1h-16.2v13h17.9v4.1H802.4z"/>
					</g>
				</g>
			</g>
		</g>
	</g>
</g>
</svg>